<svg height="1662" width="720" xmlns="http://www.w3.org/2000/svg">
<rect height="1662" fill="#555" width="720"></rect>
<text fill="#7f7" font-family="Courier New" font-size="12" xml:space="preserve">
<tspan x="10" y="26">9 megabytes installed</tspan>
<tspan x="10" y="42"></tspan>
<tspan x="10" y="58">node_modules</tspan>
<tspan x="10" y="74">├── UNMET PEER DEPENDENCY bower@^1.x</tspan>
<tspan x="10" y="90">├── UNMET PEER DEPENDENCY grunt@&gt;=0.4.0</tspan>
<tspan x="10" y="106">└─┬ grunt-bower-requirejs@2.0.0 </tspan>
<tspan x="10" y="122">  ├── UNMET PEER DEPENDENCY bower@^1.x</tspan>
<tspan x="10" y="138">  ├─┬ bower-requirejs@1.2.0 </tspan>
<tspan x="10" y="154">  │ ├─┬ chalk@1.1.3 </tspan>
<tspan x="10" y="170">  │ │ ├── ansi-styles@2.2.1 </tspan>
<tspan x="10" y="186">  │ │ ├── escape-string-regexp@1.0.5 </tspan>
<tspan x="10" y="202">  │ │ ├─┬ has-ansi@2.0.0 </tspan>
<tspan x="10" y="218">  │ │ │ └── ansi-regex@2.1.1 </tspan>
<tspan x="10" y="234">  │ │ ├── strip-ansi@3.0.1 </tspan>
<tspan x="10" y="250">  │ │ └── supports-color@2.0.0 </tspan>
<tspan x="10" y="266">  │ ├─┬ file-utils@0.2.2 </tspan>
<tspan x="10" y="282">  │ │ ├─┬ glob@4.5.3 </tspan>
<tspan x="10" y="298">  │ │ │ ├─┬ inflight@1.0.6 </tspan>
<tspan x="10" y="314">  │ │ │ │ └── wrappy@1.0.2 </tspan>
<tspan x="10" y="330">  │ │ │ ├── inherits@2.0.3 </tspan>
<tspan x="10" y="346">  │ │ │ └── once@1.4.0 </tspan>
<tspan x="10" y="362">  │ │ ├── iconv-lite@0.4.16 </tspan>
<tspan x="10" y="378">  │ │ ├── isbinaryfile@2.0.4 </tspan>
<tspan x="10" y="394">  │ │ ├── lodash@2.4.2 </tspan>
<tspan x="10" y="410">  │ │ ├─┬ minimatch@2.0.10 </tspan>
<tspan x="10" y="426">  │ │ │ └─┬ brace-expansion@1.1.7 </tspan>
<tspan x="10" y="442">  │ │ │   ├── balanced-match@0.4.2 </tspan>
<tspan x="10" y="458">  │ │ │   └── concat-map@0.0.1 </tspan>
<tspan x="10" y="474">  │ │ └─┬ rimraf@2.6.1 </tspan>
<tspan x="10" y="490">  │ │   └─┬ glob@7.1.1 </tspan>
<tspan x="10" y="506">  │ │     ├── fs.realpath@1.0.0 </tspan>
<tspan x="10" y="522">  │ │     ├── minimatch@3.0.3 </tspan>
<tspan x="10" y="538">  │ │     └── path-is-absolute@1.0.1 </tspan>
<tspan x="10" y="554">  │ ├── lodash@3.10.1 </tspan>
<tspan x="10" y="570">  │ ├─┬ nopt@3.0.6 </tspan>
<tspan x="10" y="586">  │ │ └── abbrev@1.1.0 </tspan>
<tspan x="10" y="602">  │ ├── object-assign@2.1.1 </tspan>
<tspan x="10" y="618">  │ ├── requirejs@2.3.3 </tspan>
<tspan x="10" y="634">  │ ├── slash@1.0.0 </tspan>
<tspan x="10" y="650">  │ ├─┬ sudo-block@1.2.0 </tspan>
<tspan x="10" y="666">  │ │ ├── is-docker@1.1.0 </tspan>
<tspan x="10" y="682">  │ │ └── is-root@1.0.0 </tspan>
<tspan x="10" y="698">  │ └─┬ update-notifier@0.3.2 </tspan>
<tspan x="10" y="714">  │   ├─┬ configstore@0.3.2 </tspan>
<tspan x="10" y="730">  │   │ ├─┬ graceful-fs@3.0.11 </tspan>
<tspan x="10" y="746">  │   │ │ └── natives@1.1.0 </tspan>
<tspan x="10" y="762">  │   │ ├─┬ js-yaml@3.8.3 </tspan>
<tspan x="10" y="778">  │   │ │ ├─┬ argparse@1.0.9 </tspan>
<tspan x="10" y="794">  │   │ │ │ └── sprintf-js@1.0.3 </tspan>
<tspan x="10" y="810">  │   │ │ └── esprima@3.1.3 </tspan>
<tspan x="10" y="826">  │   │ ├─┬ mkdirp@0.5.1 </tspan>
<tspan x="10" y="842">  │   │ │ └── minimist@0.0.8 </tspan>
<tspan x="10" y="858">  │   │ ├─┬ osenv@0.1.4 </tspan>
<tspan x="10" y="874">  │   │ │ ├── os-homedir@1.0.2 </tspan>
<tspan x="10" y="890">  │   │ │ └── os-tmpdir@1.0.2 </tspan>
<tspan x="10" y="906">  │   │ ├── user-home@1.1.1 </tspan>
<tspan x="10" y="922">  │   │ ├── uuid@2.0.3 </tspan>
<tspan x="10" y="938">  │   │ └── xdg-basedir@1.0.1 </tspan>
<tspan x="10" y="954">  │   ├── is-npm@1.0.0 </tspan>
<tspan x="10" y="970">  │   ├─┬ latest-version@1.0.1 </tspan>
<tspan x="10" y="986">  │   │ └─┬ package-json@1.2.0 </tspan>
<tspan x="10" y="1002">  │   │   ├─┬ got@3.3.1 </tspan>
<tspan x="10" y="1018">  │   │   │ ├─┬ duplexify@3.5.0 </tspan>
<tspan x="10" y="1034">  │   │   │ │ ├─┬ end-of-stream@1.0.0 </tspan>
<tspan x="10" y="1050">  │   │   │ │ │ └── once@1.3.3 </tspan>
<tspan x="10" y="1066">  │   │   │ │ ├─┬ readable-stream@2.2.9 </tspan>
<tspan x="10" y="1082">  │   │   │ │ │ ├── buffer-shims@1.0.0 </tspan>
<tspan x="10" y="1098">  │   │   │ │ │ ├── core-util-is@1.0.2 </tspan>
<tspan x="10" y="1114">  │   │   │ │ │ ├── isarray@1.0.0 </tspan>
<tspan x="10" y="1130">  │   │   │ │ │ ├── process-nextick-args@1.0.7 </tspan>
<tspan x="10" y="1146">  │   │   │ │ │ ├── string_decoder@1.0.0 </tspan>
<tspan x="10" y="1162">  │   │   │ │ │ └── util-deprecate@1.0.2 </tspan>
<tspan x="10" y="1178">  │   │   │ │ └── stream-shift@1.0.0 </tspan>
<tspan x="10" y="1194">  │   │   │ ├── infinity-agent@2.0.3 </tspan>
<tspan x="10" y="1210">  │   │   │ ├── is-redirect@1.0.0 </tspan>
<tspan x="10" y="1226">  │   │   │ ├── is-stream@1.1.0 </tspan>
<tspan x="10" y="1242">  │   │   │ ├── lowercase-keys@1.0.0 </tspan>
<tspan x="10" y="1258">  │   │   │ ├── nested-error-stacks@1.0.2 </tspan>
<tspan x="10" y="1274">  │   │   │ ├── object-assign@3.0.0 </tspan>
<tspan x="10" y="1290">  │   │   │ ├── prepend-http@1.0.4 </tspan>
<tspan x="10" y="1306">  │   │   │ ├─┬ read-all-stream@3.1.0 </tspan>
<tspan x="10" y="1322">  │   │   │ │ └─┬ pinkie-promise@2.0.1 </tspan>
<tspan x="10" y="1338">  │   │   │ │   └── pinkie@2.0.4 </tspan>
<tspan x="10" y="1354">  │   │   │ └── timed-out@2.0.0 </tspan>
<tspan x="10" y="1370">  │   │   └─┬ registry-url@3.1.0 </tspan>
<tspan x="10" y="1386">  │   │     └─┬ rc@1.2.1 </tspan>
<tspan x="10" y="1402">  │   │       ├── deep-extend@0.4.1 </tspan>
<tspan x="10" y="1418">  │   │       ├── ini@1.3.4 </tspan>
<tspan x="10" y="1434">  │   │       ├── minimist@1.2.0 </tspan>
<tspan x="10" y="1450">  │   │       └── strip-json-comments@2.0.1 </tspan>
<tspan x="10" y="1466">  │   ├─┬ semver-diff@2.1.0 </tspan>
<tspan x="10" y="1482">  │   │ └── semver@5.3.0 </tspan>
<tspan x="10" y="1498">  │   └── string-length@1.0.1 </tspan>
<tspan x="10" y="1514">  └─┬ load-grunt-tasks@2.0.0 </tspan>
<tspan x="10" y="1530">    ├─┬ findup-sync@0.2.1 </tspan>
<tspan x="10" y="1546">    │ └── glob@4.3.5 </tspan>
<tspan x="10" y="1562">    └─┬ multimatch@2.1.0 </tspan>
<tspan x="10" y="1578">      ├── array-differ@1.0.0 </tspan>
<tspan x="10" y="1594">      ├─┬ array-union@1.0.2 </tspan>
<tspan x="10" y="1610">      │ └── array-uniq@1.0.3 </tspan>
<tspan x="10" y="1626">      ├── arrify@1.0.1 </tspan>
<tspan x="10" y="1642">      └── minimatch@3.0.3</tspan>
</text>
</svg>
